<svg width="24" height="24" viewBox="0 0 24 24" fill="none" xmlns="http://www.w3.org/2000/svg">
<path d="M12.0047 6.60928C9.02341 6.60928 6.61873 9.01396 6.61873 11.9952C6.61873 14.9765 9.02341 17.3812 12.0047 17.3812C14.9859 17.3812 17.3906 14.9765 17.3906 11.9952C17.3906 9.01396 14.9859 6.60928 12.0047 6.60928ZM12.0047 15.4968C10.0781 15.4968 8.5031 13.9265 8.5031 11.9952C8.5031 10.064 10.0734 8.49365 12.0047 8.49365C13.9359 8.49365 15.5062 10.064 15.5062 11.9952C15.5062 13.9265 13.9312 15.4968 12.0047 15.4968ZM18.8672 6.38896C18.8672 7.0874 18.3047 7.64521 17.6109 7.64521C16.9125 7.64521 16.3547 7.08271 16.3547 6.38896C16.3547 5.69521 16.9172 5.13271 17.6109 5.13271C18.3047 5.13271 18.8672 5.69521 18.8672 6.38896ZM22.4344 7.66396C22.3547 5.98115 21.9703 4.49053 20.7375 3.2624C19.5094 2.03428 18.0187 1.6499 16.3359 1.56553C14.6015 1.46709 9.4031 1.46709 7.66873 1.56553C5.9906 1.64521 4.49998 2.02959 3.26716 3.25771C2.03435 4.48584 1.65466 5.97646 1.57029 7.65928C1.47185 9.39365 1.47185 14.5921 1.57029 16.3265C1.64998 18.0093 2.03435 19.4999 3.26716 20.728C4.49998 21.9562 5.98591 22.3405 7.66873 22.4249C9.4031 22.5233 14.6015 22.5233 16.3359 22.4249C18.0187 22.3452 19.5094 21.9608 20.7375 20.728C21.9656 19.4999 22.35 18.0093 22.4344 16.3265C22.5328 14.5921 22.5328 9.39834 22.4344 7.66396ZM20.1937 18.1874C19.8281 19.1061 19.1203 19.814 18.1969 20.1843C16.814 20.7327 13.5328 20.6061 12.0047 20.6061C10.4765 20.6061 7.1906 20.728 5.81248 20.1843C4.89373 19.8187 4.18591 19.1108 3.8156 18.1874C3.26716 16.8046 3.39373 13.5233 3.39373 11.9952C3.39373 10.4671 3.27185 7.18115 3.8156 5.80303C4.18123 4.88428 4.88904 4.17646 5.81248 3.80615C7.19529 3.25771 10.4765 3.38428 12.0047 3.38428C13.5328 3.38428 16.8187 3.2624 18.1969 3.80615C19.1156 4.17178 19.8234 4.87959 20.1937 5.80303C20.7422 7.18584 20.6156 10.4671 20.6156 11.9952C20.6156 13.5233 20.7422 16.8093 20.1937 18.1874Z" fill="#242428"/>
</svg>
