<svg width="24" height="24" viewBox="0 0 24 24" fill="none" xmlns="http://www.w3.org/2000/svg">
<path d="M6.20062 22.6397H1.84688V8.61936H6.20062V22.6397ZM4.02141 6.70686C2.62922 6.70686 1.5 5.55373 1.5 4.16154C1.5 3.49282 1.76565 2.85149 2.2385 2.37864C2.71136 1.90578 3.35269 1.64014 4.02141 1.64014C4.69012 1.64014 5.33145 1.90578 5.80431 2.37864C6.27717 2.85149 6.54281 3.49282 6.54281 4.16154C6.54281 5.55373 5.41313 6.70686 4.02141 6.70686ZM22.4953 22.6397H18.1509V15.8147C18.1509 14.1881 18.1181 12.1022 15.8873 12.1022C13.6237 12.1022 13.2769 13.8694 13.2769 15.6975V22.6397H8.92781V8.61936H13.1034V10.5319H13.1644C13.7456 9.43029 15.1655 8.26779 17.2838 8.26779C21.69 8.26779 22.5 11.1694 22.5 14.9381V22.6397H22.4953Z" fill="#242428"/>
</svg>
