<svg width="285" height="58" viewBox="0 0 285 58" fill="none" xmlns="http://www.w3.org/2000/svg">
<path d="M8.064 37.448H19.776V41H3.696V7.544H8.064V37.448ZM22.7828 27.752C22.7828 25.064 23.3268 22.712 24.4148 20.696C25.5028 18.648 26.9908 17.064 28.8788 15.944C30.7988 14.824 32.9268 14.264 35.2628 14.264C37.5668 14.264 39.5668 14.76 41.2628 15.752C42.9588 16.744 44.2228 17.992 45.0548 19.496V14.696H49.4708V41H45.0548V36.104C44.1908 37.64 42.8948 38.92 41.1668 39.944C39.4708 40.936 37.4868 41.432 35.2148 41.432C32.8788 41.432 30.7668 40.856 28.8788 39.704C26.9908 38.552 25.5028 36.936 24.4148 34.856C23.3268 32.776 22.7828 30.408 22.7828 27.752ZM45.0548 27.8C45.0548 25.816 44.6548 24.088 43.8548 22.616C43.0548 21.144 41.9668 20.024 40.5908 19.256C39.2468 18.456 37.7588 18.056 36.1268 18.056C34.4948 18.056 33.0068 18.44 31.6628 19.208C30.3188 19.976 29.2468 21.096 28.4468 22.568C27.6468 24.04 27.2468 25.768 27.2468 27.752C27.2468 29.768 27.6468 31.528 28.4468 33.032C29.2468 34.504 30.3188 35.64 31.6628 36.44C33.0068 37.208 34.4948 37.592 36.1268 37.592C37.7588 37.592 39.2468 37.208 40.5908 36.44C41.9668 35.64 43.0548 34.504 43.8548 33.032C44.6548 31.528 45.0548 29.784 45.0548 27.8ZM80.1803 14.696V41H75.8123V37.112C74.9803 38.456 73.8123 39.512 72.3083 40.28C70.8363 41.016 69.2043 41.384 67.4123 41.384C65.3643 41.384 63.5243 40.968 61.8923 40.136C60.2603 39.272 58.9643 37.992 58.0043 36.296C57.0763 34.6 56.6123 32.536 56.6123 30.104V14.696H60.9323V29.528C60.9323 32.12 61.5883 34.12 62.9003 35.528C64.2123 36.904 66.0043 37.592 68.2763 37.592C70.6123 37.592 72.4523 36.872 73.7963 35.432C75.1403 33.992 75.8123 31.896 75.8123 29.144V14.696H80.1803ZM91.9234 18.968C92.6914 17.464 93.7794 16.296 95.1874 15.464C96.6274 14.632 98.3714 14.216 100.419 14.216V18.728H99.2674C94.3714 18.728 91.9234 21.384 91.9234 26.696V41H87.5554V14.696H91.9234V18.968ZM103.83 27.752C103.83 25.064 104.374 22.712 105.462 20.696C106.55 18.648 108.038 17.064 109.926 15.944C111.846 14.824 113.974 14.264 116.31 14.264C118.614 14.264 120.614 14.76 122.31 15.752C124.006 16.744 125.27 17.992 126.102 19.496V14.696H130.518V41H126.102V36.104C125.238 37.64 123.942 38.92 122.214 39.944C120.518 40.936 118.534 41.432 116.262 41.432C113.926 41.432 111.814 40.856 109.926 39.704C108.038 38.552 106.55 36.936 105.462 34.856C104.374 32.776 103.83 30.408 103.83 27.752ZM126.102 27.8C126.102 25.816 125.702 24.088 124.902 22.616C124.102 21.144 123.014 20.024 121.638 19.256C120.294 18.456 118.806 18.056 117.174 18.056C115.542 18.056 114.054 18.44 112.71 19.208C111.366 19.976 110.294 21.096 109.494 22.568C108.694 24.04 108.294 25.768 108.294 27.752C108.294 29.768 108.694 31.528 109.494 33.032C110.294 34.504 111.366 35.64 112.71 36.44C114.054 37.208 115.542 37.592 117.174 37.592C118.806 37.592 120.294 37.208 121.638 36.44C123.014 35.64 124.102 34.504 124.902 33.032C125.702 31.528 126.102 29.784 126.102 27.8ZM167.448 23.768C168.664 23.96 169.768 24.456 170.76 25.256C171.784 26.056 172.584 27.048 173.16 28.232C173.768 29.416 174.072 30.68 174.072 32.024C174.072 33.72 173.64 35.256 172.776 36.632C171.912 37.976 170.648 39.048 168.984 39.848C167.352 40.616 165.416 41 163.176 41H150.696V7.544H162.696C164.968 7.544 166.904 7.928 168.504 8.696C170.104 9.432 171.304 10.44 172.104 11.72C172.904 13 173.304 14.44 173.304 16.04C173.304 18.024 172.76 19.672 171.672 20.984C170.616 22.264 169.208 23.192 167.448 23.768ZM155.064 21.992H162.408C164.456 21.992 166.04 21.512 167.16 20.552C168.28 19.592 168.84 18.264 168.84 16.568C168.84 14.872 168.28 13.544 167.16 12.584C166.04 11.624 164.424 11.144 162.312 11.144H155.064V21.992ZM162.792 37.4C164.968 37.4 166.664 36.888 167.88 35.864C169.096 34.84 169.704 33.416 169.704 31.592C169.704 29.736 169.064 28.28 167.784 27.224C166.504 26.136 164.792 25.592 162.648 25.592H155.064V37.4H162.792ZM204.134 26.84C204.134 27.672 204.086 28.552 203.99 29.48H182.966C183.126 32.072 184.006 34.104 185.606 35.576C187.238 37.016 189.206 37.736 191.51 37.736C193.398 37.736 194.966 37.304 196.214 36.44C197.494 35.544 198.39 34.36 198.902 32.888H203.606C202.902 35.416 201.494 37.48 199.382 39.08C197.27 40.648 194.646 41.432 191.51 41.432C189.014 41.432 186.774 40.872 184.79 39.752C182.838 38.632 181.302 37.048 180.182 35C179.062 32.92 178.502 30.52 178.502 27.8C178.502 25.08 179.046 22.696 180.134 20.648C181.222 18.6 182.742 17.032 184.694 15.944C186.678 14.824 188.95 14.264 191.51 14.264C194.006 14.264 196.214 14.808 198.134 15.896C200.054 16.984 201.526 18.488 202.55 20.408C203.606 22.296 204.134 24.44 204.134 26.84ZM199.622 25.928C199.622 24.264 199.254 22.84 198.518 21.656C197.782 20.44 196.774 19.528 195.494 18.92C194.246 18.28 192.854 17.96 191.318 17.96C189.11 17.96 187.222 18.664 185.654 20.072C184.118 21.48 183.238 23.432 183.014 25.928H199.622ZM214.267 5.48V41H209.899V5.48H214.267ZM226.08 5.48V41H221.712V5.48H226.08ZM235.78 10.424C234.948 10.424 234.244 10.136 233.668 9.56C233.092 8.984 232.804 8.28 232.804 7.448C232.804 6.616 233.092 5.912 233.668 5.336C234.244 4.76 234.948 4.472 235.78 4.472C236.58 4.472 237.252 4.76 237.796 5.336C238.372 5.912 238.66 6.616 238.66 7.448C238.66 8.28 238.372 8.984 237.796 9.56C237.252 10.136 236.58 10.424 235.78 10.424ZM237.892 14.696V41H233.524V14.696H237.892ZM258.153 14.216C261.353 14.216 263.945 15.192 265.929 17.144C267.913 19.064 268.905 21.848 268.905 25.496V41H264.585V26.12C264.585 23.496 263.929 21.496 262.617 20.12C261.305 18.712 259.513 18.008 257.241 18.008C254.937 18.008 253.097 18.728 251.721 20.168C250.377 21.608 249.705 23.704 249.705 26.456V41H245.337V14.696H249.705V18.44C250.569 17.096 251.737 16.056 253.209 15.32C254.713 14.584 256.361 14.216 258.153 14.216ZM278.296 10.424C277.464 10.424 276.76 10.136 276.184 9.56C275.608 8.984 275.32 8.28 275.32 7.448C275.32 6.616 275.608 5.912 276.184 5.336C276.76 4.76 277.464 4.472 278.296 4.472C279.096 4.472 279.768 4.76 280.312 5.336C280.888 5.912 281.176 6.616 281.176 7.448C281.176 8.28 280.888 8.984 280.312 9.56C279.768 10.136 279.096 10.424 278.296 10.424ZM280.408 14.696V41H276.04V14.696H280.408Z" fill="#242428"/>
<rect x="2" y="54" width="26" height="1" fill="#242428"/>
<path d="M32.9432 57H32.2045L34.3409 51.1818H35.0682L37.2045 57H36.4659L34.7273 52.1023H34.6818L32.9432 57ZM33.2159 54.7273H36.1932V55.3523H33.2159V54.7273ZM41.1062 57H39.3108V51.1818H41.1858C41.7502 51.1818 42.2331 51.2983 42.6347 51.5312C43.0362 51.7623 43.3439 52.0947 43.558 52.5284C43.772 52.9602 43.879 53.4773 43.879 54.0795C43.879 54.6856 43.771 55.2074 43.5551 55.6449C43.3392 56.0805 43.0248 56.4157 42.6119 56.6506C42.1991 56.8835 41.6972 57 41.1062 57ZM40.0153 56.375H41.0608C41.5419 56.375 41.9405 56.2822 42.2568 56.0966C42.5731 55.911 42.8089 55.6468 42.9642 55.304C43.1195 54.9612 43.1972 54.553 43.1972 54.0795C43.1972 53.6098 43.1205 53.2055 42.967 52.8665C42.8136 52.5256 42.5845 52.2642 42.2795 52.0824C41.9746 51.8987 41.5949 51.8068 41.1403 51.8068H40.0153V56.375ZM46.226 51.1818L47.9533 56.0795H48.0214L49.7487 51.1818H50.4874L48.351 57H47.6237L45.4874 51.1818H46.226ZM57.2293 54.0909C57.2293 54.7045 57.1185 55.2348 56.8969 55.6818C56.6753 56.1288 56.3713 56.4735 55.9849 56.7159C55.5986 56.9583 55.1573 57.0795 54.6611 57.0795C54.1649 57.0795 53.7236 56.9583 53.3372 56.7159C52.9509 56.4735 52.6469 56.1288 52.4253 55.6818C52.2037 55.2348 52.0929 54.7045 52.0929 54.0909C52.0929 53.4773 52.2037 52.947 52.4253 52.5C52.6469 52.053 52.9509 51.7083 53.3372 51.4659C53.7236 51.2235 54.1649 51.1023 54.6611 51.1023C55.1573 51.1023 55.5986 51.2235 55.9849 51.4659C56.3713 51.7083 56.6753 52.053 56.8969 52.5C57.1185 52.947 57.2293 53.4773 57.2293 54.0909ZM56.5474 54.0909C56.5474 53.5871 56.4632 53.1619 56.2946 52.8153C56.1279 52.4688 55.9016 52.2064 55.6156 52.0284C55.3315 51.8504 55.0134 51.7614 54.6611 51.7614C54.3088 51.7614 53.9897 51.8504 53.7037 52.0284C53.4196 52.2064 53.1933 52.4688 53.0247 52.8153C52.858 53.1619 52.7747 53.5871 52.7747 54.0909C52.7747 54.5947 52.858 55.0199 53.0247 55.3665C53.1933 55.7131 53.4196 55.9754 53.7037 56.1534C53.9897 56.3314 54.3088 56.4205 54.6611 56.4205C55.0134 56.4205 55.3315 56.3314 55.6156 56.1534C55.9016 55.9754 56.1279 55.7131 56.2946 55.3665C56.4632 55.0199 56.5474 54.5947 56.5474 54.0909ZM64.2957 53H63.5912C63.5495 52.7973 63.4766 52.6193 63.3724 52.4659C63.2702 52.3125 63.1452 52.1837 62.9974 52.0795C62.8516 51.9735 62.6897 51.8939 62.5116 51.8409C62.3336 51.7879 62.148 51.7614 61.9548 51.7614C61.6026 51.7614 61.2834 51.8504 60.9974 52.0284C60.7134 52.2064 60.487 52.4688 60.3185 52.8153C60.1518 53.1619 60.0685 53.5871 60.0685 54.0909C60.0685 54.5947 60.1518 55.0199 60.3185 55.3665C60.487 55.7131 60.7134 55.9754 60.9974 56.1534C61.2834 56.3314 61.6026 56.4205 61.9548 56.4205C62.148 56.4205 62.3336 56.3939 62.5116 56.3409C62.6897 56.2879 62.8516 56.2093 62.9974 56.1051C63.1452 55.9991 63.2702 55.8693 63.3724 55.7159C63.4766 55.5606 63.5495 55.3826 63.5912 55.1818H64.2957C64.2427 55.4792 64.1461 55.7453 64.006 55.9801C63.8658 56.215 63.6916 56.4148 63.4832 56.5795C63.2749 56.7424 63.041 56.8665 62.7815 56.9517C62.524 57.0369 62.2484 57.0795 61.9548 57.0795C61.4586 57.0795 61.0173 56.9583 60.631 56.7159C60.2446 56.4735 59.9406 56.1288 59.719 55.6818C59.4974 55.2348 59.3866 54.7045 59.3866 54.0909C59.3866 53.4773 59.4974 52.947 59.719 52.5C59.9406 52.053 60.2446 51.7083 60.631 51.4659C61.0173 51.2235 61.4586 51.1023 61.9548 51.1023C62.2484 51.1023 62.524 51.1449 62.7815 51.2301C63.041 51.3153 63.2749 51.4403 63.4832 51.6051C63.6916 51.768 63.8658 51.9669 64.006 52.2017C64.1461 52.4347 64.2427 52.7008 64.2957 53ZM66.8729 57H66.1342L68.2706 51.1818H68.9979L71.1342 57H70.3956L68.657 52.1023H68.6115L66.8729 57ZM67.1456 54.7273H70.1229V55.3523H67.1456V54.7273ZM77.6489 53H76.9443C76.9027 52.7973 76.8297 52.6193 76.7256 52.4659C76.6233 52.3125 76.4983 52.1837 76.3506 52.0795C76.2047 51.9735 76.0428 51.8939 75.8648 51.8409C75.6867 51.7879 75.5011 51.7614 75.308 51.7614C74.9557 51.7614 74.6366 51.8504 74.3506 52.0284C74.0665 52.2064 73.8402 52.4688 73.6716 52.8153C73.5049 53.1619 73.4216 53.5871 73.4216 54.0909C73.4216 54.5947 73.5049 55.0199 73.6716 55.3665C73.8402 55.7131 74.0665 55.9754 74.3506 56.1534C74.6366 56.3314 74.9557 56.4205 75.308 56.4205C75.5011 56.4205 75.6867 56.3939 75.8648 56.3409C76.0428 56.2879 76.2047 56.2093 76.3506 56.1051C76.4983 55.9991 76.6233 55.8693 76.7256 55.7159C76.8297 55.5606 76.9027 55.3826 76.9443 55.1818H77.6489C77.5958 55.4792 77.4992 55.7453 77.3591 55.9801C77.2189 56.215 77.0447 56.4148 76.8364 56.5795C76.628 56.7424 76.3941 56.8665 76.1347 56.9517C75.8771 57.0369 75.6015 57.0795 75.308 57.0795C74.8117 57.0795 74.3705 56.9583 73.9841 56.7159C73.5977 56.4735 73.2938 56.1288 73.0722 55.6818C72.8506 55.2348 72.7398 54.7045 72.7398 54.0909C72.7398 53.4773 72.8506 52.947 73.0722 52.5C73.2938 52.053 73.5977 51.7083 73.9841 51.4659C74.3705 51.2235 74.8117 51.1023 75.308 51.1023C75.6015 51.1023 75.8771 51.1449 76.1347 51.2301C76.3941 51.3153 76.628 51.4403 76.8364 51.6051C77.0447 51.768 77.2189 51.9669 77.3591 52.2017C77.4992 52.4347 77.5958 52.7008 77.6489 53ZM80.6919 51.1818V57H79.9874V51.1818H80.6919ZM83.5432 57H82.8045L84.9409 51.1818H85.6682L87.8045 57H87.0659L85.3273 52.1023H85.2818L83.5432 57ZM83.8159 54.7273H86.7932V55.3523H83.8159V54.7273Z" fill="#242428"/>
</svg>
