<svg width="285" height="60" viewBox="0 0 285 60" fill="none" xmlns="http://www.w3.org/2000/svg">
<path d="M8.064 37.448H19.776V41H3.696V7.544H8.064V37.448ZM22.7828 27.752C22.7828 25.064 23.3268 22.712 24.4148 20.696C25.5028 18.648 26.9908 17.064 28.8788 15.944C30.7988 14.824 32.9268 14.264 35.2628 14.264C37.5668 14.264 39.5668 14.76 41.2628 15.752C42.9588 16.744 44.2228 17.992 45.0548 19.496V14.696H49.4708V41H45.0548V36.104C44.1908 37.64 42.8948 38.92 41.1668 39.944C39.4708 40.936 37.4868 41.432 35.2148 41.432C32.8788 41.432 30.7668 40.856 28.8788 39.704C26.9908 38.552 25.5028 36.936 24.4148 34.856C23.3268 32.776 22.7828 30.408 22.7828 27.752ZM45.0548 27.8C45.0548 25.816 44.6548 24.088 43.8548 22.616C43.0548 21.144 41.9668 20.024 40.5908 19.256C39.2468 18.456 37.7588 18.056 36.1268 18.056C34.4948 18.056 33.0068 18.44 31.6628 19.208C30.3188 19.976 29.2468 21.096 28.4468 22.568C27.6468 24.04 27.2468 25.768 27.2468 27.752C27.2468 29.768 27.6468 31.528 28.4468 33.032C29.2468 34.504 30.3188 35.64 31.6628 36.44C33.0068 37.208 34.4948 37.592 36.1268 37.592C37.7588 37.592 39.2468 37.208 40.5908 36.44C41.9668 35.64 43.0548 34.504 43.8548 33.032C44.6548 31.528 45.0548 29.784 45.0548 27.8ZM80.1803 14.696V41H75.8123V37.112C74.9803 38.456 73.8123 39.512 72.3083 40.28C70.8363 41.016 69.2043 41.384 67.4123 41.384C65.3643 41.384 63.5243 40.968 61.8923 40.136C60.2603 39.272 58.9643 37.992 58.0043 36.296C57.0763 34.6 56.6123 32.536 56.6123 30.104V14.696H60.9323V29.528C60.9323 32.12 61.5883 34.12 62.9003 35.528C64.2123 36.904 66.0043 37.592 68.2763 37.592C70.6123 37.592 72.4523 36.872 73.7963 35.432C75.1403 33.992 75.8123 31.896 75.8123 29.144V14.696H80.1803ZM91.9234 18.968C92.6914 17.464 93.7794 16.296 95.1874 15.464C96.6274 14.632 98.3714 14.216 100.419 14.216V18.728H99.2674C94.3714 18.728 91.9234 21.384 91.9234 26.696V41H87.5554V14.696H91.9234V18.968ZM103.83 27.752C103.83 25.064 104.374 22.712 105.462 20.696C106.55 18.648 108.038 17.064 109.926 15.944C111.846 14.824 113.974 14.264 116.31 14.264C118.614 14.264 120.614 14.76 122.31 15.752C124.006 16.744 125.27 17.992 126.102 19.496V14.696H130.518V41H126.102V36.104C125.238 37.64 123.942 38.92 122.214 39.944C120.518 40.936 118.534 41.432 116.262 41.432C113.926 41.432 111.814 40.856 109.926 39.704C108.038 38.552 106.55 36.936 105.462 34.856C104.374 32.776 103.83 30.408 103.83 27.752ZM126.102 27.8C126.102 25.816 125.702 24.088 124.902 22.616C124.102 21.144 123.014 20.024 121.638 19.256C120.294 18.456 118.806 18.056 117.174 18.056C115.542 18.056 114.054 18.44 112.71 19.208C111.366 19.976 110.294 21.096 109.494 22.568C108.694 24.04 108.294 25.768 108.294 27.752C108.294 29.768 108.694 31.528 109.494 33.032C110.294 34.504 111.366 35.64 112.71 36.44C114.054 37.208 115.542 37.592 117.174 37.592C118.806 37.592 120.294 37.208 121.638 36.44C123.014 35.64 124.102 34.504 124.902 33.032C125.702 31.528 126.102 29.784 126.102 27.8ZM167.448 23.768C168.664 23.96 169.768 24.456 170.76 25.256C171.784 26.056 172.584 27.048 173.16 28.232C173.768 29.416 174.072 30.68 174.072 32.024C174.072 33.72 173.64 35.256 172.776 36.632C171.912 37.976 170.648 39.048 168.984 39.848C167.352 40.616 165.416 41 163.176 41H150.696V7.544H162.696C164.968 7.544 166.904 7.928 168.504 8.696C170.104 9.432 171.304 10.44 172.104 11.72C172.904 13 173.304 14.44 173.304 16.04C173.304 18.024 172.76 19.672 171.672 20.984C170.616 22.264 169.208 23.192 167.448 23.768ZM155.064 21.992H162.408C164.456 21.992 166.04 21.512 167.16 20.552C168.28 19.592 168.84 18.264 168.84 16.568C168.84 14.872 168.28 13.544 167.16 12.584C166.04 11.624 164.424 11.144 162.312 11.144H155.064V21.992ZM162.792 37.4C164.968 37.4 166.664 36.888 167.88 35.864C169.096 34.84 169.704 33.416 169.704 31.592C169.704 29.736 169.064 28.28 167.784 27.224C166.504 26.136 164.792 25.592 162.648 25.592H155.064V37.4H162.792ZM204.134 26.84C204.134 27.672 204.086 28.552 203.99 29.48H182.966C183.126 32.072 184.006 34.104 185.606 35.576C187.238 37.016 189.206 37.736 191.51 37.736C193.398 37.736 194.966 37.304 196.214 36.44C197.494 35.544 198.39 34.36 198.902 32.888H203.606C202.902 35.416 201.494 37.48 199.382 39.08C197.27 40.648 194.646 41.432 191.51 41.432C189.014 41.432 186.774 40.872 184.79 39.752C182.838 38.632 181.302 37.048 180.182 35C179.062 32.92 178.502 30.52 178.502 27.8C178.502 25.08 179.046 22.696 180.134 20.648C181.222 18.6 182.742 17.032 184.694 15.944C186.678 14.824 188.95 14.264 191.51 14.264C194.006 14.264 196.214 14.808 198.134 15.896C200.054 16.984 201.526 18.488 202.55 20.408C203.606 22.296 204.134 24.44 204.134 26.84ZM199.622 25.928C199.622 24.264 199.254 22.84 198.518 21.656C197.782 20.44 196.774 19.528 195.494 18.92C194.246 18.28 192.854 17.96 191.318 17.96C189.11 17.96 187.222 18.664 185.654 20.072C184.118 21.48 183.238 23.432 183.014 25.928H199.622ZM214.267 5.48V41H209.899V5.48H214.267ZM226.08 5.48V41H221.712V5.48H226.08ZM235.78 10.424C234.948 10.424 234.244 10.136 233.668 9.56C233.092 8.984 232.804 8.28 232.804 7.448C232.804 6.616 233.092 5.912 233.668 5.336C234.244 4.76 234.948 4.472 235.78 4.472C236.58 4.472 237.252 4.76 237.796 5.336C238.372 5.912 238.66 6.616 238.66 7.448C238.66 8.28 238.372 8.984 237.796 9.56C237.252 10.136 236.58 10.424 235.78 10.424ZM237.892 14.696V41H233.524V14.696H237.892ZM258.153 14.216C261.353 14.216 263.945 15.192 265.929 17.144C267.913 19.064 268.905 21.848 268.905 25.496V41H264.585V26.12C264.585 23.496 263.929 21.496 262.617 20.12C261.305 18.712 259.513 18.008 257.241 18.008C254.937 18.008 253.097 18.728 251.721 20.168C250.377 21.608 249.705 23.704 249.705 26.456V41H245.337V14.696H249.705V18.44C250.569 17.096 251.737 16.056 253.209 15.32C254.713 14.584 256.361 14.216 258.153 14.216ZM278.296 10.424C277.464 10.424 276.76 10.136 276.184 9.56C275.608 8.984 275.32 8.28 275.32 7.448C275.32 6.616 275.608 5.912 276.184 5.336C276.76 4.76 277.464 4.472 278.296 4.472C279.096 4.472 279.768 4.76 280.312 5.336C280.888 5.912 281.176 6.616 281.176 7.448C281.176 8.28 280.888 8.984 280.312 9.56C279.768 10.136 279.096 10.424 278.296 10.424ZM280.408 14.696V41H276.04V14.696H280.408Z" fill="#242428"/>
<rect x="2" y="54" width="26" height="1" fill="#242428"/>
<path d="M33.179 58H32.2557L34.9261 50.7273H35.8352L38.5057 58H37.5824L35.4091 51.8778H35.3523L33.179 58ZM33.5199 55.1591H37.2415V55.9403H33.5199V55.1591ZM43.3828 58H41.1385V50.7273H43.4822C44.1877 50.7273 44.7914 50.8729 45.2933 51.1641C45.7952 51.4529 46.1799 51.8684 46.4474 52.4105C46.715 52.9503 46.8487 53.5966 46.8487 54.3494C46.8487 55.107 46.7138 55.7592 46.4439 56.3061C46.174 56.8506 45.781 57.2696 45.2649 57.5632C44.7488 57.8544 44.1214 58 43.3828 58ZM42.0192 57.2188H43.326C43.9273 57.2188 44.4257 57.1027 44.821 56.8707C45.2164 56.6387 45.5111 56.3085 45.7053 55.88C45.8994 55.4515 45.9964 54.9413 45.9964 54.3494C45.9964 53.7623 45.9006 53.2569 45.7088 52.8331C45.517 52.407 45.2306 52.0803 44.8494 51.853C44.4683 51.6233 43.9936 51.5085 43.4254 51.5085H42.0192V57.2188ZM49.7825 50.7273L51.9416 56.8494H52.0268L54.1859 50.7273H55.1092L52.4387 58H51.5297L48.8592 50.7273H49.7825ZM63.5366 54.3636C63.5366 55.1307 63.3981 55.7936 63.1211 56.3523C62.8441 56.911 62.4641 57.3419 61.9812 57.6449C61.4982 57.9479 60.9466 58.0994 60.3263 58.0994C59.7061 58.0994 59.1545 57.9479 58.6715 57.6449C58.1886 57.3419 57.8086 56.911 57.5316 56.3523C57.2546 55.7936 57.1161 55.1307 57.1161 54.3636C57.1161 53.5966 57.2546 52.9337 57.5316 52.375C57.8086 51.8163 58.1886 51.3854 58.6715 51.0824C59.1545 50.7794 59.7061 50.6278 60.3263 50.6278C60.9466 50.6278 61.4982 50.7794 61.9812 51.0824C62.4641 51.3854 62.8441 51.8163 63.1211 52.375C63.3981 52.9337 63.5366 53.5966 63.5366 54.3636ZM62.6843 54.3636C62.6843 53.7339 62.579 53.2024 62.3683 52.7692C62.1599 52.3359 61.877 52.008 61.5195 51.7855C61.1644 51.563 60.7667 51.4517 60.3263 51.4517C59.886 51.4517 59.4871 51.563 59.1296 51.7855C58.7745 52.008 58.4916 52.3359 58.2809 52.7692C58.0726 53.2024 57.9684 53.7339 57.9684 54.3636C57.9684 54.9934 58.0726 55.5249 58.2809 55.9581C58.4916 56.3913 58.7745 56.7192 59.1296 56.9418C59.4871 57.1643 59.886 57.2756 60.3263 57.2756C60.7667 57.2756 61.1644 57.1643 61.5195 56.9418C61.877 56.7192 62.1599 56.3913 62.3683 55.9581C62.579 55.5249 62.6843 54.9934 62.6843 54.3636ZM71.489 53C71.4109 52.7609 71.3079 52.5466 71.18 52.3572C71.0546 52.1655 70.9042 52.0021 70.729 51.8672C70.5562 51.7322 70.3597 51.6293 70.1396 51.5582C69.9194 51.4872 69.6779 51.4517 69.4151 51.4517C68.9843 51.4517 68.5924 51.563 68.2397 51.7855C67.887 52.008 67.6064 52.3359 67.3981 52.7692C67.1897 53.2024 67.0856 53.7339 67.0856 54.3636C67.0856 54.9934 67.1909 55.5249 67.4016 55.9581C67.6123 56.3913 67.8976 56.7192 68.2575 56.9418C68.6173 57.1643 69.0221 57.2756 69.4719 57.2756C69.8886 57.2756 70.2556 57.1868 70.5728 57.0092C70.8924 56.8293 71.141 56.576 71.3185 56.2493C71.4985 55.9202 71.5884 55.5331 71.5884 55.0881L71.8583 55.1449H69.6708V54.3636H72.4407V55.1449C72.4407 55.7438 72.3129 56.2647 72.0572 56.7074C71.8039 57.1501 71.4535 57.4934 71.006 57.7372C70.561 57.9787 70.0496 58.0994 69.4719 58.0994C68.828 58.0994 68.2622 57.9479 67.7745 57.6449C67.2892 57.3419 66.9104 56.911 66.6381 56.3523C66.3683 55.7936 66.2333 55.1307 66.2333 54.3636C66.2333 53.7884 66.3103 53.2711 66.4641 52.8118C66.6204 52.3501 66.8406 51.9571 67.1246 51.6328C67.4087 51.3085 67.7449 51.0599 68.1332 50.8871C68.5214 50.7143 68.9487 50.6278 69.4151 50.6278C69.7987 50.6278 70.1561 50.6858 70.4876 50.8018C70.8214 50.9155 71.1185 51.0777 71.3789 51.2884C71.6417 51.4967 71.8607 51.7464 72.0359 52.0376C72.2111 52.3265 72.3318 52.6473 72.3981 53H71.489ZM75.5227 58H74.5994L77.2699 50.7273H78.179L80.8494 58H79.9261L77.7528 51.8778H77.696L75.5227 58ZM75.8636 55.1591H79.5852V55.9403H75.8636V55.1591ZM85.7266 58H83.4822V50.7273H85.826C86.5315 50.7273 87.1352 50.8729 87.6371 51.1641C88.139 51.4529 88.5237 51.8684 88.7912 52.4105C89.0587 52.9503 89.1925 53.5966 89.1925 54.3494C89.1925 55.107 89.0575 55.7592 88.7876 56.3061C88.5178 56.8506 88.1248 57.2696 87.6087 57.5632C87.0926 57.8544 86.4652 58 85.7266 58ZM84.3629 57.2188H85.6697C86.2711 57.2188 86.7694 57.1027 87.1648 56.8707C87.5601 56.6387 87.8549 56.3085 88.049 55.88C88.2431 55.4515 88.3402 54.9413 88.3402 54.3494C88.3402 53.7623 88.2443 53.2569 88.0526 52.8331C87.8608 52.407 87.5743 52.0803 87.1932 51.853C86.812 51.6233 86.3374 51.5085 85.7692 51.5085H84.3629V57.2188ZM92.1262 58H91.2029L93.8734 50.7273H94.7825L97.4529 58H96.5297L94.3564 51.8778H94.2995L92.1262 58ZM92.4672 55.1591H96.1887V55.9403H92.4672V55.1591ZM110.535 54.3636C110.535 55.1307 110.396 55.7936 110.119 56.3523C109.842 56.911 109.462 57.3419 108.979 57.6449C108.496 57.9479 107.945 58.0994 107.324 58.0994C106.704 58.0994 106.153 57.9479 105.67 57.6449C105.187 57.3419 104.807 56.911 104.53 56.3523C104.253 55.7936 104.114 55.1307 104.114 54.3636C104.114 53.5966 104.253 52.9337 104.53 52.375C104.807 51.8163 105.187 51.3854 105.67 51.0824C106.153 50.7794 106.704 50.6278 107.324 50.6278C107.945 50.6278 108.496 50.7794 108.979 51.0824C109.462 51.3854 109.842 51.8163 110.119 52.375C110.396 52.9337 110.535 53.5966 110.535 54.3636ZM109.682 54.3636C109.682 53.7339 109.577 53.2024 109.366 52.7692C109.158 52.3359 108.875 52.008 108.518 51.7855C108.162 51.563 107.765 51.4517 107.324 51.4517C106.884 51.4517 106.485 51.563 106.128 51.7855C105.773 52.008 105.49 52.3359 105.279 52.7692C105.071 53.2024 104.966 53.7339 104.966 54.3636C104.966 54.9934 105.071 55.5249 105.279 55.9581C105.49 56.3913 105.773 56.7192 106.128 56.9418C106.485 57.1643 106.884 57.2756 107.324 57.2756C107.765 57.2756 108.162 57.1643 108.518 56.9418C108.875 56.7192 109.158 56.3913 109.366 55.9581C109.577 55.5249 109.682 54.9934 109.682 54.3636ZM113.472 58H112.549L115.219 50.7273H116.128L118.799 58H117.875L115.702 51.8778H115.645L113.472 58ZM113.813 55.1591H117.534V55.9403H113.813V55.1591ZM121.431 58V50.7273H123.974C124.481 50.7273 124.899 50.8149 125.228 50.9901C125.557 51.1629 125.802 51.3961 125.963 51.6896C126.124 51.9808 126.204 52.304 126.204 52.6591C126.204 52.9716 126.149 53.2296 126.037 53.4332C125.928 53.6368 125.784 53.7978 125.604 53.9162C125.426 54.0346 125.234 54.1222 125.025 54.179V54.25C125.248 54.2642 125.471 54.3423 125.696 54.4844C125.921 54.6264 126.109 54.83 126.261 55.0952C126.413 55.3603 126.488 55.6847 126.488 56.0682C126.488 56.4328 126.405 56.7607 126.24 57.0518C126.074 57.343 125.812 57.5739 125.455 57.7443C125.097 57.9148 124.632 58 124.059 58H121.431ZM122.312 57.2188H124.059C124.635 57.2188 125.043 57.1075 125.284 56.8849C125.528 56.66 125.65 56.3878 125.65 56.0682C125.65 55.822 125.587 55.5947 125.462 55.3864C125.337 55.1757 125.158 55.0076 124.926 54.8821C124.694 54.7543 124.419 54.6903 124.102 54.6903H122.312V57.2188ZM122.312 53.9233H123.946C124.211 53.9233 124.45 53.8712 124.663 53.767C124.878 53.6629 125.049 53.5161 125.174 53.3267C125.302 53.1373 125.366 52.9148 125.366 52.6591C125.366 52.3395 125.255 52.0684 125.032 51.8459C124.81 51.621 124.457 51.5085 123.974 51.5085H122.312V53.9233ZM131.893 50.3864L129.549 59.0938H128.782L131.126 50.3864H131.893ZM138.477 52.5455C138.434 52.1856 138.262 51.9062 137.959 51.7074C137.656 51.5085 137.284 51.4091 136.844 51.4091C136.522 51.4091 136.24 51.4612 135.998 51.5653C135.759 51.6695 135.572 51.8127 135.437 51.995C135.305 52.1773 135.238 52.3845 135.238 52.6165C135.238 52.8106 135.285 52.9775 135.377 53.1172C135.472 53.2545 135.592 53.3693 135.739 53.4616C135.886 53.5516 136.04 53.6262 136.201 53.6854C136.362 53.7422 136.51 53.7884 136.645 53.8239L137.383 54.0227C137.573 54.0724 137.783 54.1411 138.015 54.2287C138.25 54.3163 138.474 54.4358 138.687 54.5874C138.902 54.7365 139.08 54.9283 139.219 55.1626C139.359 55.397 139.429 55.6847 139.429 56.0256C139.429 56.4186 139.326 56.7737 139.12 57.0909C138.916 57.4081 138.618 57.6603 138.225 57.8473C137.834 58.0343 137.36 58.1278 136.801 58.1278C136.28 58.1278 135.829 58.0438 135.448 57.8757C135.069 57.7076 134.771 57.4732 134.553 57.1726C134.338 56.8719 134.216 56.5227 134.187 56.125H135.096C135.12 56.3996 135.212 56.6269 135.373 56.8068C135.537 56.9844 135.743 57.117 135.991 57.2045C136.242 57.2898 136.512 57.3324 136.801 57.3324C137.137 57.3324 137.439 57.2779 137.706 57.169C137.974 57.0578 138.186 56.9039 138.342 56.7074C138.498 56.5085 138.577 56.2765 138.577 56.0114C138.577 55.7699 138.509 55.5734 138.374 55.4219C138.239 55.2704 138.062 55.1473 137.841 55.0526C137.621 54.9579 137.383 54.875 137.128 54.804L136.233 54.5483C135.665 54.3849 135.215 54.1518 134.883 53.8487C134.552 53.5457 134.386 53.1491 134.386 52.6591C134.386 52.2519 134.496 51.8968 134.716 51.5938C134.939 51.2884 135.237 51.0516 135.611 50.8835C135.988 50.7131 136.408 50.6278 136.872 50.6278C137.341 50.6278 137.757 50.7119 138.122 50.88C138.487 51.0457 138.775 51.273 138.988 51.5618C139.204 51.8506 139.318 52.1785 139.329 52.5455H138.477ZM142.377 58V50.7273H144.834C145.405 50.7273 145.871 50.8303 146.233 51.0362C146.598 51.2398 146.868 51.5156 147.043 51.8636C147.218 52.2116 147.306 52.5999 147.306 53.0284C147.306 53.4569 147.218 53.8464 147.043 54.1967C146.87 54.5471 146.603 54.8265 146.24 55.0348C145.878 55.2408 145.414 55.3438 144.848 55.3438H143.087V54.5625H144.82C145.211 54.5625 145.524 54.495 145.761 54.3601C145.998 54.2251 146.169 54.0429 146.276 53.8132C146.385 53.5812 146.439 53.3196 146.439 53.0284C146.439 52.7372 146.385 52.4768 146.276 52.2472C146.169 52.0175 145.997 51.8376 145.757 51.7074C145.518 51.5748 145.201 51.5085 144.806 51.5085H143.257V58H142.377ZM154.239 56.5085V55.7841L157.435 50.7273H157.96V51.8494H157.605L155.19 55.6705V55.7273H159.494V56.5085H154.239ZM157.662 58V56.2884V55.951V50.7273H158.5V58H157.662ZM164.74 58.0994C164.442 58.0947 164.143 58.0379 163.845 57.929C163.547 57.8201 163.274 57.6366 163.028 57.3786C162.782 57.1181 162.584 56.7666 162.435 56.3239C162.286 55.8788 162.211 55.3201 162.211 54.6477C162.211 54.0038 162.272 53.4332 162.393 52.9361C162.513 52.4366 162.689 52.0163 162.918 51.6754C163.148 51.3321 163.425 51.0717 163.749 50.8942C164.076 50.7166 164.444 50.6278 164.854 50.6278C165.261 50.6278 165.623 50.7095 165.94 50.8729C166.26 51.0339 166.52 51.2588 166.721 51.5476C166.923 51.8364 167.053 52.169 167.112 52.5455H166.246C166.165 52.2187 166.009 51.9477 165.777 51.7322C165.545 51.5168 165.237 51.4091 164.854 51.4091C164.29 51.4091 163.846 51.6541 163.522 52.1442C163.2 52.6342 163.038 53.322 163.035 54.2074H163.092C163.225 54.0062 163.382 53.8345 163.564 53.6925C163.749 53.5481 163.953 53.4368 164.175 53.3587C164.398 53.2805 164.633 53.2415 164.882 53.2415C165.299 53.2415 165.68 53.3456 166.025 53.554C166.371 53.7599 166.648 54.0452 166.856 54.4098C167.065 54.772 167.169 55.1875 167.169 55.6562C167.169 56.1061 167.068 56.518 166.867 56.892C166.666 57.2637 166.383 57.5597 166.018 57.7798C165.656 57.9976 165.23 58.1042 164.74 58.0994ZM164.74 57.3182C165.038 57.3182 165.306 57.2436 165.542 57.0945C165.782 56.9453 165.97 56.7453 166.107 56.4943C166.247 56.2434 166.317 55.964 166.317 55.6562C166.317 55.3556 166.249 55.0821 166.114 54.8359C165.982 54.5874 165.798 54.3897 165.564 54.2429C165.332 54.0961 165.067 54.0227 164.768 54.0227C164.543 54.0227 164.334 54.0677 164.14 54.1577C163.946 54.2453 163.775 54.366 163.628 54.5199C163.484 54.6738 163.37 54.8501 163.287 55.049C163.205 55.2455 163.163 55.4527 163.163 55.6705C163.163 55.9593 163.231 56.2292 163.366 56.4801C163.503 56.7311 163.69 56.9335 163.927 57.0874C164.166 57.2412 164.437 57.3182 164.74 57.3182ZM170.293 58L173.545 51.5653V51.5085H169.795V50.7273H174.455V51.5511L171.216 58H170.293ZM176.653 58.0568C176.478 58.0568 176.328 57.9941 176.202 57.8686C176.077 57.7431 176.014 57.5928 176.014 57.4176C176.014 57.2424 176.077 57.0921 176.202 56.9666C176.328 56.8411 176.478 56.7784 176.653 56.7784C176.828 56.7784 176.979 56.8411 177.104 56.9666C177.23 57.0921 177.292 57.2424 177.292 57.4176C177.292 57.5336 177.263 57.6402 177.204 57.7372C177.147 57.8343 177.07 57.9124 176.973 57.9716C176.878 58.0284 176.772 58.0568 176.653 58.0568ZM180.282 58V57.3608L182.683 54.733C182.964 54.4252 183.196 54.1577 183.379 53.9304C183.561 53.7008 183.696 53.4853 183.784 53.2841C183.874 53.0805 183.919 52.8674 183.919 52.6449C183.919 52.3892 183.857 52.1679 183.734 51.9808C183.613 51.7938 183.447 51.6494 183.237 51.5476C183.026 51.4458 182.789 51.3949 182.526 51.3949C182.247 51.3949 182.003 51.4529 181.795 51.5689C181.589 51.6825 181.429 51.8423 181.316 52.0483C181.204 52.2543 181.149 52.4957 181.149 52.7727H180.311C180.311 52.3466 180.409 51.9725 180.605 51.6506C180.802 51.3286 181.069 51.0777 181.408 50.8977C181.749 50.7178 182.131 50.6278 182.555 50.6278C182.981 50.6278 183.359 50.7178 183.688 50.8977C184.017 51.0777 184.275 51.3203 184.462 51.6257C184.649 51.9311 184.742 52.2708 184.742 52.6449C184.742 52.9124 184.694 53.174 184.597 53.4297C184.502 53.683 184.336 53.9659 184.1 54.2784C183.865 54.5885 183.54 54.9673 183.123 55.4148L181.49 57.1619V57.2188H184.87V58H180.282ZM190.394 50.7273V58H189.513V51.6506H189.47L187.695 52.8295V51.9347L189.513 50.7273H190.394ZM196.258 58.0994C195.841 58.0994 195.466 58.0166 195.132 57.8509C194.798 57.6851 194.531 57.4579 194.33 57.169C194.128 56.8802 194.018 56.5511 193.999 56.1818H194.852C194.885 56.5109 195.034 56.7831 195.299 56.9986C195.567 57.2116 195.886 57.3182 196.258 57.3182C196.556 57.3182 196.821 57.2483 197.053 57.1087C197.288 56.969 197.471 56.7772 197.604 56.5334C197.739 56.2872 197.806 56.009 197.806 55.6989C197.806 55.3816 197.736 55.0987 197.597 54.8501C197.459 54.5992 197.27 54.4015 197.029 54.2571C196.787 54.1127 196.511 54.0393 196.201 54.0369C195.979 54.0346 195.75 54.0689 195.516 54.1399C195.281 54.2086 195.088 54.2973 194.937 54.4062L194.113 54.3068L194.553 50.7273H198.332V51.5085H195.292L195.036 53.6534H195.079C195.228 53.535 195.415 53.4368 195.64 53.3587C195.865 53.2805 196.099 53.2415 196.343 53.2415C196.788 53.2415 197.185 53.348 197.533 53.5611C197.883 53.7718 198.158 54.0606 198.357 54.4276C198.558 54.7945 198.659 55.2135 198.659 55.6847C198.659 56.1487 198.554 56.563 198.346 56.9276C198.14 57.2898 197.856 57.5762 197.494 57.7869C197.132 57.9953 196.72 58.0994 196.258 58.0994Z" fill="#242428"/>
</svg>
